# xmcd CD database file
#
# Track frame offsets:
#	183
#	12838
#	26748
#	39448
#	61583
#	76543
#	90378
#	102625
#	117233
#	128110
#
# Disc length: 1900 seconds
#
# Revision: 11
# Processed by: cddbd v1.5.2PL0 Copyright (c) Steve Scherf et al.
# Submitted via: CDex 1.79
#
DISCID=6c076a0a
DTITLE=Dwight Yoakam - Guitars, Cadillacs, Etc., Etc.
DYEAR=1986
DGENRE=Country
TTITLE0=Honky Tonk Man
TTITLE1=It Won't Hurt
TTITLE2=I'll Be Gone
TTITLE3=South Of Cincinnati
TTITLE4=Bury Me (featuring Maria McKee)
TTITLE5=Guitars, Cadillacs
TTITLE6=Twenty Years
TTITLE7=Ring Of Fire
TTITLE8=Miner's Prayer
TTITLE9=Heartaches By The Number
EXTD=(c)1986 Reprise Records - WEA\nupc 07599253722\nProduced by Peter Anderson\nArranged by Pete.Anderson and Dwight.Yoakam YEAR: 1986
EXTT0=
EXTT1=
EXTT2=
EXTT3=
EXTT4=
EXTT5=
EXTT6=
EXTT7=
EXTT8=
EXTT9=
PLAYORDER=
